<svg xmlns="http://www.w3.org/2000/svg" viewBox="0 0 115 34.759"><defs><style>.a{fill:#fff;}</style></defs><g transform="translate(104.89 1.285)"><path class="a" d="M1304.923,20.636a1.413,1.413,0,0,0-.049-.388.767.767,0,0,0-.186-.307,1.623,1.623,0,0,0-.356-.259,4.972,4.972,0,0,0-.59-.251,4.6,4.6,0,0,1-.7-.3,2.267,2.267,0,0,1-.533-.388,1.551,1.551,0,0,1-.461-1.148,1.656,1.656,0,0,1,.129-.671,1.541,1.541,0,0,1,.356-.541,1.568,1.568,0,0,1,.566-.356,1.953,1.953,0,0,1,.735-.129,1.816,1.816,0,0,1,.8.162,1.742,1.742,0,0,1,.59.42,1.692,1.692,0,0,1,.356.606,2.075,2.075,0,0,1,.121.7h-.784a1.851,1.851,0,0,0-.065-.485,1.1,1.1,0,0,0-.194-.388.887.887,0,0,0-.339-.251,1.4,1.4,0,0,0-.937-.016.771.771,0,0,0-.307.21.864.864,0,0,0-.178.315,1.286,1.286,0,0,0-.057.4.892.892,0,0,0,.283.663,2.538,2.538,0,0,0,.873.477,4.138,4.138,0,0,1,.776.331,2.029,2.029,0,0,1,.533.412,1.464,1.464,0,0,1,.307.517,2.062,2.062,0,0,1,.1.655,1.705,1.705,0,0,1-.129.687,1.609,1.609,0,0,1-.364.525,1.689,1.689,0,0,1-.574.339,2.24,2.24,0,0,1-.76.113,2.288,2.288,0,0,1-.727-.121,2.059,2.059,0,0,1-.638-.356,1.825,1.825,0,0,1-.453-.59,1.876,1.876,0,0,1-.17-.824h.784a1.42,1.42,0,0,0,.1.55.99.99,0,0,0,.259.38,1.111,1.111,0,0,0,.38.218,1.46,1.46,0,0,0,.469.073,1.026,1.026,0,0,0,.776-.267A1.039,1.039,0,0,0,1304.923,20.636Z" transform="translate(-1301.9 -15.9)"/><path class="a" d="M1362.719,16.9l1.624,5.083,1.624-5.083h1.01v6.231h-.784V20.706l.073-2.433-1.632,4.857h-.6l-1.624-4.841.073,2.416v2.424h-.784V16.9Z" transform="translate(-1356.867 -16.819)"/></g><path class="a" d="M3.952,12.623a7.868,7.868,0,0,1,2.538-2.158A6.783,6.783,0,0,1,9.714,9.7a7.306,7.306,0,0,1,2.683.477,4.96,4.96,0,0,1,2.053,1.544,7.571,7.571,0,0,1,1.309,2.723,15.3,15.3,0,0,1,.461,4.033v15.84H12.284V18.426a6.616,6.616,0,0,0-.946-4.033,3.4,3.4,0,0,0-2.845-1.2,4.026,4.026,0,0,0-2.651.986,7.054,7.054,0,0,0-1.891,2.57V34.314H0V0H3.952Z"/><path class="a" d="M235.083,53.05a11.248,11.248,0,0,1-3.911-.647,7.382,7.382,0,0,1-2.958-1.98,9.007,9.007,0,0,1-1.867-3.362,15.756,15.756,0,0,1-.647-4.8V39.538a16.613,16.613,0,0,1,.76-5.4,10.34,10.34,0,0,1,2-3.572,7.3,7.3,0,0,1,2.845-1.98,9.376,9.376,0,0,1,3.33-.606,9.137,9.137,0,0,1,3.887.752,6.629,6.629,0,0,1,2.635,2.2,9.785,9.785,0,0,1,1.5,3.572,22.662,22.662,0,0,1,.469,4.889v2.3h-13.5v.558q0,3.891,1.463,5.649a5.146,5.146,0,0,0,4.21,1.762,7.3,7.3,0,0,0,1.81-.2,6.391,6.391,0,0,0,1.471-.566,6.269,6.269,0,0,0,1.228-.873,9.8,9.8,0,0,0,1.051-1.107l2.053,2.505a9.421,9.421,0,0,1-1.18,1.342,7.322,7.322,0,0,1-1.657,1.148,10.291,10.291,0,0,1-2.2.816A10.83,10.83,0,0,1,235.083,53.05Zm6.409-29.958H227.777V19.9h13.714v3.192Zm-6.861,8.292a5.541,5.541,0,0,0-1.9.315,3.48,3.48,0,0,0-1.527,1.107,6.05,6.05,0,0,0-1.059,2.134,14.5,14.5,0,0,0-.493,3.37h9.52v-.541a18.246,18.246,0,0,0-.3-2.578,6.4,6.4,0,0,0-.735-2.02,3.521,3.521,0,0,0-1.35-1.317A4.442,4.442,0,0,0,234.63,31.384Z" transform="translate(-207.555 -18.292)"/><path class="a" d="M490.694,20.4a10.745,10.745,0,0,1,7.3,2.287,7.88,7.88,0,0,1,2.635,6.271,9.917,9.917,0,0,1-1.35,5.213,6.944,6.944,0,0,1-4.324,3.063v.089a5.867,5.867,0,0,1,2.311.913,4.909,4.909,0,0,1,1.414,1.535,7.176,7.176,0,0,1,.776,1.988,20.137,20.137,0,0,1,.388,2.287c.065.792.105,1.6.137,2.424a21.619,21.619,0,0,0,.226,2.424,14.93,14.93,0,0,0,.525,2.263,5.6,5.6,0,0,0,1.026,1.9h-4.849a2.674,2.674,0,0,1-.614-1.374,13.506,13.506,0,0,1-.2-1.948c-.032-.719-.065-1.487-.089-2.311A16.016,16.016,0,0,0,495.729,45a22.84,22.84,0,0,0-.461-2.263,5.347,5.347,0,0,0-.873-1.875,4.2,4.2,0,0,0-1.56-1.277,5.727,5.727,0,0,0-2.562-.477h-4.526V53.065H481.4V20.4Zm.913,14.822a6.409,6.409,0,0,0,2.4-.889,4.877,4.877,0,0,0,1.649-1.786,5.967,5.967,0,0,0,.614-2.9,5.859,5.859,0,0,0-1.374-4.025,5.644,5.644,0,0,0-4.437-1.56h-4.712V35.456h2.974A18.293,18.293,0,0,0,491.607,35.222Z" transform="translate(-442.709 -18.751)"/><path class="a" d="M750.1,131.319a15.408,15.408,0,0,1,.727-4.97,10.384,10.384,0,0,1,1.988-3.564,8.225,8.225,0,0,1,2.958-2.158,9.145,9.145,0,0,1,3.645-.727,9.37,9.37,0,0,1,3.685.727,8.172,8.172,0,0,1,2.982,2.158,10.384,10.384,0,0,1,1.988,3.564,15.408,15.408,0,0,1,.727,4.97V133.6a15.324,15.324,0,0,1-.727,4.946,10.384,10.384,0,0,1-1.988,3.564,8.086,8.086,0,0,1-2.958,2.142,9.327,9.327,0,0,1-3.661.711,9.436,9.436,0,0,1-3.677-.711,8.076,8.076,0,0,1-2.974-2.142,10.383,10.383,0,0,1-1.988-3.564,15.324,15.324,0,0,1-.727-4.946Zm3.952,2.279a13.308,13.308,0,0,0,.412,3.507,7.551,7.551,0,0,0,1.14,2.489,4.812,4.812,0,0,0,1.705,1.5,4.693,4.693,0,0,0,2.142.5q5.382,0,5.382-8v-2.279a13.157,13.157,0,0,0-.412-3.483,7.8,7.8,0,0,0-1.139-2.505,4.865,4.865,0,0,0-1.721-1.519,4.67,4.67,0,0,0-2.158-.517,4.468,4.468,0,0,0-2.125.517,4.8,4.8,0,0,0-1.7,1.519,7.892,7.892,0,0,0-1.131,2.505,13.2,13.2,0,0,0-.412,3.483V133.6Z" transform="translate(-689.804 -110.21)"/><g transform="translate(81.397 1.333)"><path class="a" d="M1017.8,31.208h2.95a8.232,8.232,0,0,0,2.812-.428,5.723,5.723,0,0,0,2.012-1.172,4.863,4.863,0,0,0,1.2-1.762,6.006,6.006,0,0,0,.4-2.222,5.924,5.924,0,0,0-1.406-4.259,5.69,5.69,0,0,0-4.291-1.463,7.054,7.054,0,0,0-2.4.388,5.2,5.2,0,0,0-1.851,1.115,4.974,4.974,0,0,0-1.2,1.762,6.068,6.068,0,0,0-.42,2.311h-4.13a8.64,8.64,0,0,1,.711-3.507,8.444,8.444,0,0,1,2.037-2.845,9.775,9.775,0,0,1,3.16-1.923,11.412,11.412,0,0,1,4.1-.7,12.91,12.91,0,0,1,4.025.59,8.6,8.6,0,0,1,3.1,1.746,7.8,7.8,0,0,1,2,2.869,10.365,10.365,0,0,1,.719,4,6.643,6.643,0,0,1-.3,1.923,7.978,7.978,0,0,1-.913,1.964,8.6,8.6,0,0,1-1.584,1.8,8.47,8.47,0,0,1-2.311,1.4,8.565,8.565,0,0,1,2.691,1.35,7.066,7.066,0,0,1,2.643,4.033,9.766,9.766,0,0,1,.267,2.23,9.926,9.926,0,0,1-.784,4.057,8.4,8.4,0,0,1-2.166,2.982,9.58,9.58,0,0,1-3.265,1.843,12.539,12.539,0,0,1-4.089.638,13.2,13.2,0,0,1-4-.59,9.754,9.754,0,0,1-3.281-1.746,8.25,8.25,0,0,1-2.222-2.837,8.773,8.773,0,0,1-.816-3.855h4.154a6.069,6.069,0,0,0,.428,2.311A5.011,5.011,0,0,0,1017.011,45a5.365,5.365,0,0,0,1.948,1.148,7.725,7.725,0,0,0,2.57.4,8.187,8.187,0,0,0,2.57-.372,4.843,4.843,0,0,0,3.176-3.031,7.61,7.61,0,0,0,.428-2.659,6.441,6.441,0,0,0-.493-2.635,4.822,4.822,0,0,0-1.4-1.843,5.974,5.974,0,0,0-2.174-1.083,10.743,10.743,0,0,0-2.861-.356h-2.95V31.208Z" transform="translate(-1011.2 -16.5)"/></g></svg>